<svg xmlns="http://www.w3.org/2000/svg" width="39" height="41" viewBox="0 0 39 41" fill="none">
  <g clip-path="url(#clip0_62_788)">
    <path d="M34.3594 5.74998C33.9511 5.47194 33.4841 5.30372 32.9996 5.26013C32.5151 5.21654 32.0278 5.2989 31.5806 5.49998L16.9269 11.575C16.5803 11.7248 16.2091 11.8013 15.8344 11.8H6.45313C5.66576 11.8 4.91065 12.1292 4.3539 12.7153C3.79715 13.3013 3.48438 14.0962 3.48438 14.925V15.175H0.515625V22.675H3.48438V23C3.50298 23.8157 3.82395 24.5914 4.3787 25.1614C4.93344 25.7313 5.67795 26.0502 6.45313 26.05L10.0156 34C10.2569 34.5353 10.6366 34.9882 11.1114 35.3066C11.5861 35.625 12.1365 35.796 12.6994 35.8H14.1956C14.9789 35.7934 15.7279 35.4612 16.2795 34.8759C16.8311 34.2906 17.1407 33.4995 17.1406 32.675V26.35L31.5806 32.425C31.9363 32.572 32.3148 32.6483 32.6969 32.65C33.2897 32.6385 33.8669 32.4476 34.3594 32.1C34.75 31.8223 35.0722 31.4508 35.2994 31.0161C35.5265 30.5813 35.6521 30.0959 35.6656 29.6V8.32498C35.6635 7.81627 35.5433 7.31581 35.3157 6.86706C35.0881 6.41832 34.7598 6.03486 34.3594 5.74998ZM14.1719 14.925V23H6.45313V14.925H14.1719ZM14.1719 32.675H12.6756L9.75438 26.05H14.1719V32.675ZM18.0194 23.375C17.7373 23.2234 17.4433 23.0979 17.1406 23V14.75C17.4403 14.6844 17.7343 14.5924 18.0194 14.475L32.6969 8.32498V29.525L18.0194 23.375ZM35.7369 15.8V22.05C36.5242 22.05 37.2794 21.7207 37.8361 21.1347C38.3928 20.5486 38.7056 19.7538 38.7056 18.925C38.7056 18.0962 38.3928 17.3013 37.8361 16.7153C37.2794 16.1292 36.5242 15.8 35.7369 15.8Z" fill="#008060"/>
  </g>
  <defs>
    <clipPath id="clip0_62_788">
      <rect width="38" height="40" fill="white" transform="translate(0.515625 0.5)"/>
    </clipPath>
  </defs>
</svg>