<svg xmlns="http://www.w3.org/2000/svg" width="43" height="43" viewBox="0 0 43 43" fill="none">
  <path fill-rule="evenodd" clip-rule="evenodd" d="M28.7551 8.77394L31.9576 11.9764C36.6634 16.6839 39.0154 19.0359 39.0154 21.9584C39.0154 24.8827 36.6634 27.2347 31.9576 31.9404C27.2501 36.6479 24.8981 38.9999 21.9739 38.9999C19.0514 38.9999 16.6976 36.6479 11.9919 31.9422L8.78939 28.7397C6.08564 26.0342 4.73289 24.6832 4.23064 22.9279C3.72664 21.1727 4.15714 19.3089 5.01814 15.5832L5.51339 13.4342C6.23614 10.2982 6.59839 8.73019 7.67114 7.65569C8.74389 6.58119 10.3136 6.22069 13.4496 5.49794L15.5986 5.00094C19.3261 4.14169 21.1881 3.71119 22.9434 4.21344C24.6986 4.71744 26.0514 6.07019 28.7551 8.77394ZM20.0209 25.5739C18.8431 24.3979 18.8519 22.7074 19.5571 21.3687C19.3825 21.1165 19.3018 20.8111 19.3289 20.5056C19.356 20.2001 19.4893 19.9137 19.7055 19.6962C19.9218 19.4787 20.2074 19.3438 20.5128 19.3149C20.8181 19.286 21.124 19.365 21.3771 19.5382C21.9721 19.2232 22.6249 19.0552 23.2759 19.0622C23.624 19.0654 23.9565 19.2068 24.2004 19.4553C24.4442 19.7037 24.5794 20.0388 24.5761 20.3869C24.5729 20.735 24.4315 21.0676 24.1831 21.3114C23.9346 21.5553 23.5995 21.6904 23.2514 21.6872C22.8462 21.7022 22.4632 21.8763 22.1856 22.1719C21.5084 22.8492 21.6851 23.5282 21.8759 23.7189C22.0684 23.9097 22.7456 24.0864 23.4229 23.4092C24.7949 22.0372 27.1644 21.5822 28.6816 23.0994C29.8594 24.2772 29.8506 25.9677 29.1454 27.3064C29.3189 27.5587 29.3987 27.8636 29.3712 28.1685C29.3436 28.4734 29.2103 28.7591 28.9943 28.9761C28.7783 29.1931 28.4933 29.3278 28.1886 29.3568C27.8838 29.3859 27.5785 29.3075 27.3254 29.1352C26.5401 29.5661 25.6291 29.7096 24.7494 29.5412C24.4083 29.4711 24.1089 29.2684 23.9173 28.9776C23.7256 28.6868 23.6573 28.3318 23.7274 27.9907C23.7975 27.6496 24.0002 27.3502 24.291 27.1586C24.5818 26.9669 24.9368 26.8986 25.2779 26.9687C25.5876 27.0334 26.0881 26.9319 26.5169 26.5032C27.1941 25.8242 27.0174 25.1469 26.8266 24.9562C26.6341 24.7654 25.9569 24.5887 25.2796 25.2659C23.9076 26.6379 21.5381 27.0929 20.0209 25.5739ZM18.0504 18.5127C18.3753 18.1876 18.6331 17.8017 18.8089 17.377C18.9847 16.9524 19.0752 16.4972 19.0751 16.0376C19.075 15.5779 18.9844 15.1228 18.8084 14.6982C18.6325 14.2736 18.3746 13.8878 18.0495 13.5628C17.7244 13.2379 17.3386 12.9801 16.9139 12.8043C16.4892 12.6285 16.034 12.538 15.5744 12.5381C15.1148 12.5382 14.6596 12.6288 14.235 12.8048C13.8104 12.9807 13.4246 13.2386 13.0996 13.5637C12.4434 14.2202 12.0748 15.1105 12.0749 16.0388C12.0751 16.9671 12.444 17.8573 13.1005 18.5136C13.757 19.1698 14.6474 19.5384 15.5756 19.5383C16.5039 19.5381 17.3941 19.1692 18.0504 18.5127Z" fill="#008060"/>
</svg>